<?xml version="1.0" encoding="UTF-8"?>
<svg id="_图层_2" data-name="图层 2" xmlns="http://www.w3.org/2000/svg" xmlns:xlink="http://www.w3.org/1999/xlink" viewBox="0 0 101 101">
  <defs>
    <style>
      .cls-1 {
        fill: url(#_未命名的渐变_5);
      }

      .cls-2 {
        fill: #efefef;
      }
    </style>
    <linearGradient id="_未命名的渐变_5" data-name="未命名的渐变 5" x1="1.5" y1="50.5" x2="98.5" y2="50.5" gradientUnits="userSpaceOnUse">
      <stop offset="0" stop-color="#db4b95"/>
      <stop offset=".11" stop-color="#de417a"/>
      <stop offset=".29" stop-color="#e33558"/>
      <stop offset=".43" stop-color="#e52d43"/>
      <stop offset=".52" stop-color="#e72b3c"/>
      <stop offset=".62" stop-color="#e72e3b"/>
      <stop offset=".7" stop-color="#e8383a"/>
      <stop offset=".77" stop-color="#ea4a38"/>
      <stop offset=".84" stop-color="#ed6335"/>
      <stop offset=".91" stop-color="#f18232"/>
      <stop offset=".98" stop-color="#f6a92e"/>
      <stop offset="1" stop-color="#f8b62d"/>
    </linearGradient>
  </defs>
  <g id="_图层_1-2" data-name="图层 1">
    <g>
      <rect class="cls-1" width="101" height="101"/>
      <path class="cls-2" d="M10.54,59.44l-1.32-1.32c1.9-2.27,3.89-4.04,5.98-5.32,2.09-1.27,3.92-1.91,5.49-1.91,1.2,0,1.81,.63,1.81,1.88s-.53,3.48-1.6,6.68c4.08-4.13,7-6.57,8.76-7.34,1.76-.76,3.15-1.15,4.17-1.15,1.25,0,2.25,.58,2.99,1.74,.74,1.16,1.11,2.78,1.11,4.87,0,5.42-1.7,10.62-5.11,15.58-3.41,4.96-7.2,7.44-11.37,7.44-1.48,0-3.11-.44-4.87-1.32l-2.85,11.19c-.19,.6-.28,1.14-.28,1.6,0,.97,.43,1.67,1.29,2.09,.86,.42,2.79,.81,5.81,1.18l-.42,1.67c-3.71-.28-6.63-.42-8.76-.42s-4.91,.14-8.21,.42l.42-1.67c1.67-.19,2.91-.68,3.72-1.5,.81-.81,1.45-2.17,1.91-4.07l6.19-25.8c1.11-4.59,1.67-7.25,1.67-8,0-.6-.3-.9-.9-.9-.88,0-2.76,1.46-5.63,4.38Zm6.88,16.06c1.76,1.76,3.59,2.64,5.49,2.64,2.73,0,5.12-2.12,7.16-6.36,2.04-4.24,3.06-8.35,3.06-12.34,0-1.2-.29-2.17-.87-2.89-.58-.72-1.36-1.08-2.33-1.08-1.16,0-2.63,.72-4.42,2.16-1.79,1.44-3.11,2.84-3.96,4.21-.86,1.37-1.63,3.47-2.33,6.29l-1.81,7.37Z"/>
      <path class="cls-2" d="M58.91,20.84l.59-2.85c4.58-.24,9.33-.99,14.23-2.25-1.19,3.64-2.13,6.84-2.85,9.61l-3.2,12.93c6.8,0,11.94-1.7,15.42-5.1,3.48-3.4,5.22-7.47,5.22-12.22,0-3.48-1.29-6.21-3.85-8.18-2.57-1.97-6.23-2.96-10.97-2.96-7.2,0-14.09,1.8-20.7,5.4-6.6,3.6-11.49,8.11-14.65,13.52-3.16,5.42-4.74,10.46-4.74,15.12,0,1.42,.26,3.02,.77,4.8,.51,1.78,2.03,3.58,4.57,5.4,2.69,1.9,4.03,3.52,4.03,4.86,0,.55-.26,1.23-.77,2.02-.52,.79-1.25,1.19-2.19,1.19-2.14,0-4.37-1.6-6.7-4.8-2.33-3.2-3.5-7.25-3.5-12.16,0-6.24,1.96-12.49,5.87-18.74,3.91-6.24,9.47-11.19,16.66-14.83,7.19-3.64,14.94-5.46,23.25-5.46,6.88,0,12.14,1.38,15.77,4.15,3.64,2.77,5.46,6.17,5.46,10.2s-1.25,7.31-3.74,10.32c-2.49,3.01-6.15,5.34-10.97,7,4.66,.63,8.18,2.24,10.56,4.8,2.37,2.57,3.56,5.75,3.56,9.55,0,6.88-2.98,12.75-8.95,17.61-5.97,4.86-12.67,7.29-20.1,7.29-2.37,0-5.69-.2-9.96-.59-1.27-.16-2.93-.24-4.98-.24-5.46,0-9.77,.36-12.93,1.07l.83-3.2c3.95-.24,6.8-1.17,8.54-2.79,1.74-1.62,3.4-5.47,4.98-11.56l8.54-33.56c.32-1.26,.47-2.25,.47-2.96,0-1.74-1.19-2.53-3.56-2.37Zm7.83,20.87l-2.85,11.62c-2.45,9.88-4.94,16.17-7.47,18.86,3.32,.79,6.4,1.19,9.25,1.19,6.72,0,11.76-2.15,15.12-6.46,3.36-4.31,5.04-8.79,5.04-13.46,0-3.4-1.13-6.23-3.38-8.48-2.25-2.25-7.49-3.34-15.71-3.26Z"/>
    </g>
  </g>
</svg>